# xmcd
#
# Track frame offsets:
#	150
#	13255
#	26591
#	40463
#	54045
#	67181
#	81410
#	92805
#	105841
#	118699
#	128922
#	142861
#	156729
#	169336
#	182903
#	197718
#	210778
#	224660
#	239320
#	252702
#	265732
#	280650
#	294035
#	308117
#
# Disc length: 4280
#
# Revision: 1
# Processed by: cddbd v1.5.1PL0 Copyright (c) Steve Scherf et al.
# Submitted via: CDex 1.40Release
# Normalized: r0:DSETVAR1,TDELIM( - )
#
DISCID=6310b618
DTITLE=Various Artist - Country Blues Hard Hitters Vol 2
DYEAR=1900
DGENRE=Blues
TTITLE0=Big Bill Broozy - How Do You Want It Done
TTITLE1=Gus Cannon's Jug Stompers - Walk Right In
TTITLE2=Kokomo Arnold - Back To The Woods
TTITLE3=Walter 'Buddy Boy' Hawkins - Voice Throwing Blues
TTITLE4=Two Poor Boys (Joe Evans and Artur McClean) - Two White Horses In A Line
TTITLE5=Alice Moore - Dark Angel
TTITLE6=Blind Willie McTell - Statesboro Blues
TTITLE7=Jack Kelly and his South Memphis Jug band - Believe I'll Go Back Home
TTITLE8=Bo weevil Jackson - Devil And My Brown
TTITLE9=Lottie Beaman - Rolling Log Blues
TTITLE10=Peetie Wheatstraw - Don't Hang My Clothes On No Barbed Wire Line
TTITLE11=Washington Phillips - Denomination Blues (Part 1)
TTITLE12=Louie Lasky - Teasin' Brown Blues
TTITLE13=Blind Blake - Diddie Wa Diddie
TTITLE14=Big Joe Williams - Wild Cow Blues
TTITLE15=Furry lewis - Big Chief Blues
TTITLE16=The Black Ace - Whisky And Women
TTITLE17=Victoria Spivey - Dope Head Blues
TTITLE18=Sleepy John estes - The Girl I Love She Got Long Curly Hair
TTITLE19=Blind Lemon Jefferson - See That My Grave Is Kept Clean
TTITLE20=Memphis Minnie - Chickasaw Train Blues
TTITLE21=Memphis Jug Band - Little Green Slippers
TTITLE22=Frank Stokes - Right Now Blues
TTITLE23=Skip James - I'm So Glad
EXTD=ID3G: 0
EXTT0=
EXTT1=
EXTT2=
EXTT3=
EXTT4=
EXTT5=
EXTT6=
EXTT7=
EXTT8=
EXTT9=
EXTT10=
EXTT11=
EXTT12=
EXTT13=
EXTT14=
EXTT15=
EXTT16=
EXTT17=
EXTT18=
EXTT19=
EXTT20=
EXTT21=
EXTT22=
EXTT23=
PLAYORDER=
